<?xml version="1.0" standalone="no"?>
<!DOCTYPE svg PUBLIC "-//W3C//DTD SVG 20010904//EN"
 "http://www.w3.org/TR/2001/REC-SVG-20010904/DTD/svg10.dtd">
<svg version="1.0" xmlns="http://www.w3.org/2000/svg"
 width="1144.000000pt" height="1136.000000pt" viewBox="0 0 1144.000000 1136.000000"
 preserveAspectRatio="xMidYMid meet">

<g transform="translate(0.000000,1136.000000) scale(0.100000,-0.100000)"
fill="#000000" stroke="none">
<path d="M110 5670 l0 -5620 5620 0 5620 0 0 5620 0 5620 -5620 0 -5620 0 0
-5620z m800 5200 l0 -380 -380 0 -380 0 0 380 0 380 380 0 380 0 0 -380z m800
0 l0 -380 -380 0 -380 0 0 380 0 380 380 0 380 0 0 -380z m800 0 l0 -380 -380
0 -380 0 0 380 0 380 380 0 380 0 0 -380z m800 0 l0 -380 -380 0 -380 0 0 380
0 380 380 0 380 0 0 -380z m800 0 l0 -380 -380 0 -380 0 0 380 0 380 380 0
380 0 0 -380z m800 0 l0 -380 -380 0 -380 0 0 380 0 380 380 0 380 0 0 -380z
m800 0 l0 -380 -380 0 -380 0 0 380 0 380 380 0 380 0 0 -380z m800 0 l0 -380
-380 0 -380 0 0 380 0 380 380 0 380 0 0 -380z m800 0 l0 -380 -380 0 -380 0
0 380 0 380 380 0 380 0 0 -380z m800 0 l0 -380 -380 0 -380 0 0 380 0 380
380 0 380 0 0 -380z m800 0 l0 -380 -380 0 -380 0 0 380 0 380 380 0 380 0 0
-380z m800 0 l0 -380 -380 0 -380 0 0 380 0 380 380 0 380 0 0 -380z m800 0
l0 -380 -380 0 -380 0 0 380 0 380 380 0 380 0 0 -380z m800 0 l0 -380 -380 0
-380 0 0 380 0 380 380 0 380 0 0 -380z m-10400 -800 l0 -380 -380 0 -380 0 0
380 0 380 380 0 380 0 0 -380z m800 0 l0 -380 -380 0 -380 0 0 380 0 380 380
0 380 0 0 -380z m800 0 l0 -380 -380 0 -380 0 0 380 0 380 380 0 380 0 0 -380z
m800 0 l0 -380 -380 0 -380 0 0 380 0 380 380 0 380 0 0 -380z m800 0 l0 -380
-380 0 -380 0 0 380 0 380 380 0 380 0 0 -380z m800 0 l0 -380 -380 0 -380 0
0 380 0 380 380 0 380 0 0 -380z m800 0 l0 -380 -380 0 -380 0 0 380 0 380
380 0 380 0 0 -380z m800 0 l0 -380 -380 0 -380 0 0 380 0 380 380 0 380 0 0
-380z m800 0 l0 -380 -380 0 -380 0 0 380 0 380 380 0 380 0 0 -380z m800 0
l0 -380 -380 0 -380 0 0 380 0 380 380 0 380 0 0 -380z m800 0 l0 -380 -380 0
-380 0 0 380 0 380 380 0 380 0 0 -380z m800 0 l0 -380 -380 0 -380 0 0 380 0
380 380 0 380 0 0 -380z m800 0 l0 -380 -380 0 -380 0 0 380 0 380 380 0 380
0 0 -380z m800 0 l0 -380 -380 0 -380 0 0 380 0 380 380 0 380 0 0 -380z
m-10400 -800 l0 -380 -380 0 -380 0 0 380 0 380 380 0 380 0 0 -380z m800 0
l0 -380 -380 0 -380 0 0 380 0 380 380 0 380 0 0 -380z m800 0 l0 -380 -380 0
-380 0 0 380 0 380 380 0 380 0 0 -380z m800 0 l0 -380 -380 0 -380 0 0 380 0
380 380 0 380 0 0 -380z m800 0 l0 -380 -380 0 -380 0 0 380 0 380 380 0 380
0 0 -380z m800 0 l0 -380 -380 0 -380 0 0 380 0 380 380 0 380 0 0 -380z m800
0 l0 -380 -380 0 -380 0 0 380 0 380 380 0 380 0 0 -380z m800 0 l0 -380 -380
0 -380 0 0 380 0 380 380 0 380 0 0 -380z m800 0 l0 -380 -380 0 -380 0 0 380
0 380 380 0 380 0 0 -380z m800 0 l0 -380 -380 0 -380 0 0 380 0 380 380 0
380 0 0 -380z m800 0 l0 -380 -380 0 -380 0 0 380 0 380 380 0 380 0 0 -380z
m800 0 l0 -380 -380 0 -380 0 0 380 0 380 380 0 380 0 0 -380z m800 0 l0 -380
-380 0 -380 0 0 380 0 380 380 0 380 0 0 -380z m800 0 l0 -380 -380 0 -380 0
0 380 0 380 380 0 380 0 0 -380z m-10400 -800 l0 -380 -380 0 -380 0 0 380 0
380 380 0 380 0 0 -380z m800 0 l0 -380 -380 0 -380 0 0 380 0 380 380 0 380
0 0 -380z m800 0 l0 -380 -380 0 -380 0 0 380 0 380 380 0 380 0 0 -380z m800
0 l0 -380 -380 0 -380 0 0 380 0 380 380 0 380 0 0 -380z m800 0 l0 -380 -380
0 -380 0 0 380 0 380 380 0 380 0 0 -380z m800 0 l0 -380 -380 0 -380 0 0 380
0 380 380 0 380 0 0 -380z m800 0 l0 -380 -380 0 -380 0 0 380 0 380 380 0
380 0 0 -380z m800 0 l0 -380 -380 0 -380 0 0 380 0 380 380 0 380 0 0 -380z
m800 0 l0 -380 -380 0 -380 0 0 380 0 380 380 0 380 0 0 -380z m800 0 l0 -380
-380 0 -380 0 0 380 0 380 380 0 380 0 0 -380z m800 0 l0 -380 -380 0 -380 0
0 380 0 380 380 0 380 0 0 -380z m800 0 l0 -380 -380 0 -380 0 0 380 0 380
380 0 380 0 0 -380z m800 0 l0 -380 -380 0 -380 0 0 380 0 380 380 0 380 0 0
-380z m800 0 l0 -380 -380 0 -380 0 0 380 0 380 380 0 380 0 0 -380z m-10400
-800 l0 -380 -380 0 -380 0 0 380 0 380 380 0 380 0 0 -380z m800 0 l0 -380
-380 0 -380 0 0 380 0 380 380 0 380 0 0 -380z m800 0 l0 -380 -380 0 -380 0
0 380 0 380 380 0 380 0 0 -380z m800 0 l0 -380 -380 0 -380 0 0 380 0 380
380 0 380 0 0 -380z m800 0 l0 -380 -380 0 -380 0 0 380 0 380 380 0 380 0 0
-380z m800 0 l0 -380 -380 0 -380 0 0 380 0 380 380 0 380 0 0 -380z m800 0
l0 -380 -380 0 -380 0 0 380 0 380 380 0 380 0 0 -380z m800 0 l0 -380 -380 0
-380 0 0 380 0 380 380 0 380 0 0 -380z m800 0 l0 -380 -380 0 -380 0 0 380 0
380 380 0 380 0 0 -380z m800 0 l0 -380 -380 0 -380 0 0 380 0 380 380 0 380
0 0 -380z m800 0 l0 -380 -380 0 -380 0 0 380 0 380 380 0 380 0 0 -380z m800
0 l0 -380 -380 0 -380 0 0 380 0 380 380 0 380 0 0 -380z m800 0 l0 -380 -380
0 -380 0 0 380 0 380 380 0 380 0 0 -380z m800 0 l0 -380 -380 0 -380 0 0 380
0 380 380 0 380 0 0 -380z m-10400 -800 l0 -380 -380 0 -380 0 0 380 0 380
380 0 380 0 0 -380z m800 0 l0 -380 -380 0 -380 0 0 380 0 380 380 0 380 0 0
-380z m800 0 l0 -380 -380 0 -380 0 0 380 0 380 380 0 380 0 0 -380z m800 0
l0 -380 -380 0 -380 0 0 380 0 380 380 0 380 0 0 -380z m800 0 l0 -380 -380 0
-380 0 0 380 0 380 380 0 380 0 0 -380z m800 191 l0 -188 -56 -11 c-159 -32
-284 -158 -316 -318 l-11 -54 -188 0 -189 0 0 380 0 380 380 0 380 0 0 -189z
m800 0 l0 -188 -54 -11 c-145 -29 -257 -128 -305 -268 -15 -46 -21 -55 -26
-39 -59 175 -163 275 -321 307 l-54 11 0 188 0 189 380 0 380 0 0 -189z m800
0 l0 -188 -54 -11 c-145 -29 -257 -128 -305 -268 -15 -46 -21 -55 -26 -39 -59
175 -163 275 -321 307 l-54 11 0 188 0 189 380 0 380 0 0 -189z m800 -191 l0
-380 -189 0 -188 0 -6 45 c-21 151 -162 295 -321 327 l-56 11 0 188 0 189 380
0 380 0 0 -380z m800 0 l0 -380 -380 0 -380 0 0 380 0 380 380 0 380 0 0 -380z
m800 0 l0 -380 -380 0 -380 0 0 380 0 380 380 0 380 0 0 -380z m800 0 l0 -380
-380 0 -380 0 0 380 0 380 380 0 380 0 0 -380z m800 0 l0 -380 -380 0 -380 0
0 380 0 380 380 0 380 0 0 -380z m800 0 l0 -380 -380 0 -380 0 0 380 0 380
380 0 380 0 0 -380z m-6464 -116 c95 -45 111 -196 28 -251 -21 -13 -24 -23
-24 -74 0 -59 0 -59 30 -59 23 0 30 -4 30 -20 0 -19 -7 -20 -95 -20 -88 0 -95
1 -95 20 0 16 7 20 35 20 l35 0 0 49 0 48 -40 7 c-26 4 -51 18 -74 41 -120
119 17 311 170 239z m800 0 c95 -45 111 -196 28 -251 -21 -13 -24 -23 -24 -74
0 -59 0 -59 30 -59 23 0 30 -4 30 -20 0 -19 -7 -20 -95 -20 -88 0 -95 1 -95
20 0 16 7 20 35 20 l35 0 0 49 0 48 -40 7 c-26 4 -51 18 -74 41 -120 119 17
311 170 239z m800 0 c54 -26 76 -65 84 -152 4 -43 4 -87 -1 -100 -5 -14 -33
-46 -62 -73 l-52 -49 63 0 c59 0 62 -1 62 -25 l0 -25 -100 0 c-99 0 -100 0
-100 24 0 14 18 44 44 72 l43 49 -51 0 c-90 0 -154 71 -143 161 11 104 118
163 213 118z m-1326 -164 c0 -16 -8 -19 -57 -22 -54 -3 -58 -5 -61 -28 -3 -24
-1 -25 37 -22 32 3 45 -1 65 -22 59 -58 14 -166 -69 -166 -53 0 -104 32 -105
68 0 18 57 15 68 -4 6 -10 19 -14 38 -12 27 3 29 6 29 43 0 38 -1 40 -30 38
-16 -1 -45 -5 -62 -9 l-33 -6 0 81 0 81 90 0 c83 0 90 -2 90 -20z m763 9 c12
-7 25 -17 29 -23 14 -21 8 -63 -12 -81 -19 -17 -19 -18 5 -37 30 -23 33 -66 7
-98 -24 -30 -97 -38 -140 -16 -50 26 -55 76 -8 76 15 0 26 -7 29 -20 4 -15 14
-20 36 -20 56 0 53 62 -3 68 -20 3 -26 9 -26 26 0 18 7 25 31 30 25 5 30 10
27 28 -4 28 -47 38 -60 14 -12 -21 -68 -22 -68 -1 0 9 11 27 25 40 27 28 89
34 128 14z m817 -109 l0 -120 30 0 c23 0 30 -4 30 -20 0 -19 -7 -20 -95 -20
-88 0 -95 1 -95 20 0 16 7 20 35 20 l35 0 0 90 c0 50 -3 90 -7 90 -5 0 -17 -7
-27 -15 -27 -21 -36 -19 -36 8 0 29 54 66 98 66 l32 1 0 -120z m-5790 -420 l0
-380 -380 0 -380 0 0 380 0 380 380 0 380 0 0 -380z m800 0 l0 -380 -380 0
-380 0 0 380 0 380 380 0 380 0 0 -380z m800 0 l0 -380 -380 0 -380 0 0 380 0
380 380 0 380 0 0 -380z m800 0 l0 -380 -380 0 -380 0 0 380 0 380 380 0 380
0 0 -380z m800 190 c0 -183 1 -190 20 -190 19 0 20 7 20 190 l0 190 189 0 188
0 11 -56 c25 -123 112 -233 230 -291 53 -26 66 -28 177 -28 103 0 127 3 168
22 104 48 166 119 204 232 12 36 22 59 22 50 2 -40 74 -160 122 -203 49 -44
143 -96 173 -96 8 0 18 -4 21 -10 3 -5 -2 -10 -12 -10 -29 0 -136 -55 -177
-90 -87 -77 -131 -180 -138 -324 -3 -50 -1 -81 3 -70 6 14 8 15 8 3 2 -40 74
-160 122 -203 49 -44 143 -96 173 -96 8 0 18 -4 21 -10 3 -5 -2 -10 -12 -10
-29 0 -136 -55 -177 -90 -52 -46 -91 -106 -115 -176 -15 -46 -21 -55 -26 -39
-34 101 -71 162 -130 214 -40 35 -145 91 -172 92 -16 0 -15 1 2 8 12 5 -9 7
-50 4 -120 -7 -149 -13 -211 -42 -151 -72 -227 -195 -236 -385 -3 -50 -1 -81
3 -70 6 14 8 15 8 3 2 -40 74 -160 122 -203 49 -44 143 -96 173 -96 8 0 18 -4
21 -10 3 -5 -2 -10 -12 -10 -29 0 -136 -55 -177 -90 -87 -77 -131 -180 -138
-324 -3 -50 -1 -81 3 -70 6 14 8 15 8 3 2 -40 74 -160 122 -203 49 -44 143
-96 173 -96 8 0 18 -5 21 -10 3 -6 -2 -10 -12 -10 -29 0 -136 -55 -177 -90
-52 -46 -91 -106 -115 -176 -15 -46 -21 -55 -26 -39 -34 101 -71 162 -130 214
-40 35 -145 91 -172 92 -16 0 -15 1 2 8 12 5 -9 7 -50 4 -120 -7 -149 -13
-211 -42 -151 -72 -227 -195 -236 -385 -3 -50 -1 -81 3 -70 6 14 8 15 8 3 1
-9 17 -48 36 -87 57 -114 175 -203 290 -219 l45 -6 0 -188 0 -189 -380 0 -380
0 0 190 c0 183 -1 190 -20 190 -19 0 -20 -7 -20 -190 l0 -190 -380 0 -380 0 0
380 0 380 190 0 c183 0 190 1 190 20 0 19 -7 20 -190 20 l-190 0 0 380 0 380
380 0 380 0 0 -190 c0 -183 1 -190 20 -190 19 0 20 7 20 190 l0 190 190 0
c183 0 190 1 190 20 0 19 -7 20 -190 20 l-190 0 0 380 0 380 190 0 c183 0 190
1 190 20 0 19 -7 20 -190 20 l-190 0 0 380 0 380 190 0 c183 0 190 1 190 20 0
19 -7 20 -190 20 l-190 0 0 380 0 380 380 0 380 0 0 -190z m3200 -190 l0 -380
-190 0 c-183 0 -190 -1 -190 -20 0 -19 7 -20 190 -20 l190 0 0 -190 c0 -183 1
-190 20 -190 19 0 20 7 20 190 l0 190 380 0 380 0 0 -380 0 -380 -190 0 c-183
0 -190 -1 -190 -20 0 -19 7 -20 190 -20 l190 0 0 -380 0 -380 -190 0 c-183 0
-190 -1 -190 -20 0 -19 7 -20 190 -20 l190 0 0 -380 0 -380 -380 0 -380 0 0
190 c0 183 -1 190 -20 190 -19 0 -20 -7 -20 -190 l0 -190 -380 0 -380 0 0 380
0 380 190 0 c183 0 190 1 190 20 0 19 -7 20 -190 20 l-190 0 0 189 0 188 59 6
c122 11 236 92 289 205 25 52 27 68 27 177 0 111 -2 124 -28 177 -41 83 -105
149 -186 192 -38 20 -77 36 -87 37 -17 0 -17 1 1 8 12 5 -9 7 -50 4 -120 -7
-149 -13 -211 -42 -107 -50 -176 -127 -213 -237 -15 -46 -21 -55 -26 -39 -34
101 -71 162 -130 214 -40 35 -145 91 -172 92 -10 0 12 10 48 22 113 38 184
100 232 204 19 41 22 65 22 168 0 111 -2 124 -28 177 -41 83 -105 149 -186
192 -38 20 -77 36 -87 37 -11 0 11 10 47 22 135 45 217 131 250 261 l12 47 22
-54 c46 -113 109 -183 214 -234 52 -26 65 -28 176 -28 109 0 125 2 177 27 113
53 194 167 205 289 l6 59 188 0 189 0 0 -380z m800 0 l0 -380 -380 0 -380 0 0
380 0 380 380 0 380 0 0 -380z m800 0 l0 -380 -380 0 -380 0 0 380 0 380 380
0 380 0 0 -380z m800 0 l0 -380 -380 0 -380 0 0 380 0 380 380 0 380 0 0 -380z
m800 0 l0 -380 -380 0 -380 0 0 380 0 380 380 0 380 0 0 -380z m800 0 l0 -380
-380 0 -380 0 0 380 0 380 380 0 380 0 0 -380z m-5664 -116 c42 -20 73 -62 81
-109 5 -31 9 -35 34 -35 l29 0 0 -120 0 -120 30 0 c23 0 30 -4 30 -20 0 -19
-7 -20 -95 -20 -88 0 -95 1 -95 20 0 16 7 20 35 20 l35 0 0 90 c0 50 -1 90 -3
90 -2 0 -20 -16 -41 -35 -65 -59 -151 -59 -211 0 -119 119 19 311 171 239z
m-4736 -684 l0 -380 -380 0 -380 0 0 380 0 380 380 0 380 0 0 -380z m800 0 l0
-380 -380 0 -380 0 0 380 0 380 380 0 380 0 0 -380z m800 0 l0 -380 -380 0
-380 0 0 380 0 380 380 0 380 0 0 -380z m800 0 l0 -380 -380 0 -380 0 0 380 0
380 380 0 380 0 0 -380z m5600 0 l0 -380 -380 0 -380 0 0 380 0 380 380 0 380
0 0 -380z m800 0 l0 -380 -380 0 -380 0 0 380 0 380 380 0 380 0 0 -380z m800
0 l0 -380 -380 0 -380 0 0 380 0 380 380 0 380 0 0 -380z m800 0 l0 -380 -380
0 -380 0 0 380 0 380 380 0 380 0 0 -380z m-6464 -116 c42 -20 73 -62 81 -109
5 -29 10 -35 29 -35 52 0 83 -72 48 -111 -14 -16 -14 -19 5 -38 29 -29 27 -76
-4 -106 -19 -20 -34 -25 -75 -25 -41 0 -56 5 -75 25 -35 34 -33 65 3 65 16 0
32 -8 40 -20 16 -27 59 -26 67 0 9 27 -11 50 -41 50 -37 0 -33 42 6 57 32 12
40 40 15 49 -10 4 -30 -9 -55 -34 -64 -67 -152 -69 -215 -7 -119 119 19 311
171 239z m800 0 c42 -20 73 -62 81 -109 5 -34 7 -35 50 -35 40 0 44 -2 41 -22
-2 -19 -10 -24 -48 -26 -46 -3 -70 -16 -70 -36 0 -7 14 -10 39 -8 56 6 91 -30
91 -92 0 -37 -5 -48 -31 -70 -59 -50 -169 -20 -169 45 0 15 60 10 66 -6 4 -9
19 -15 35 -15 22 0 30 6 35 25 12 48 -20 80 -57 57 -26 -17 -69 -15 -69 2 0
10 -11 12 -44 9 -54 -6 -108 17 -139 61 -31 43 -31 129 0 172 43 60 122 80
189 48z m821 -12 c68 -48 81 -148 29 -216 -21 -29 -26 -45 -26 -95 l0 -61 30
0 c23 0 30 -4 30 -20 0 -19 -7 -20 -95 -20 -88 0 -95 1 -95 20 0 16 7 20 35
20 l35 0 0 49 0 48 -44 5 c-194 22 -169 311 25 295 26 -2 60 -13 76 -25z m223
-252 l0 -120 30 0 c23 0 30 -4 30 -20 0 -19 -7 -20 -95 -20 -88 0 -95 1 -95
20 0 16 7 20 35 20 l35 0 0 90 c0 50 -3 90 -7 90 -5 0 -17 -7 -27 -15 -27 -21
-36 -19 -36 8 0 29 54 66 98 66 l32 1 0 -120z m-5780 -420 l0 -380 -380 0
-380 0 0 380 0 380 380 0 380 0 0 -380z m800 0 l0 -380 -380 0 -380 0 0 380 0
380 380 0 380 0 0 -380z m800 0 l0 -380 -380 0 -380 0 0 380 0 380 380 0 380
0 0 -380z m800 0 l0 -380 -380 0 -380 0 0 380 0 380 380 0 380 0 0 -380z
m5600 0 l0 -380 -380 0 -380 0 0 380 0 380 380 0 380 0 0 -380z m800 0 l0
-380 -380 0 -380 0 0 380 0 380 380 0 380 0 0 -380z m800 0 l0 -380 -380 0
-380 0 0 380 0 380 380 0 380 0 0 -380z m800 0 l0 -380 -380 0 -380 0 0 380 0
380 380 0 380 0 0 -380z m-5911 177 c31 -50 103 -112 170 -144 52 -26 65 -28
176 -28 103 0 127 3 168 22 104 48 166 119 204 232 12 36 22 59 22 50 1 -9 17
-48 36 -87 57 -114 175 -203 290 -219 l45 -6 0 -188 0 -189 -190 0 c-183 0
-190 -1 -190 -20 0 -19 7 -20 190 -20 l190 0 0 -380 0 -380 -189 0 -188 0 -6
45 c-9 64 -50 145 -102 203 -44 48 -163 121 -201 123 -17 0 -17 1 1 8 12 5 -9
7 -50 4 -120 -7 -149 -13 -211 -42 -107 -50 -176 -127 -213 -237 -15 -46 -21
-55 -26 -39 -34 101 -71 162 -130 214 -40 35 -145 91 -172 92 -10 0 12 10 48
22 113 38 184 100 232 204 19 41 22 65 22 168 0 111 -2 124 -28 177 -41 83
-105 149 -186 192 -38 20 -77 36 -87 37 -11 0 11 10 47 22 135 45 217 131 250
261 l12 47 22 -54 c12 -30 32 -70 44 -90z m-553 -293 c42 -20 73 -62 81 -109
6 -34 6 -35 54 -35 63 0 63 -9 4 -123 -28 -54 -45 -101 -45 -122 0 -32 -2 -35
-30 -35 -26 0 -30 3 -30 29 0 38 25 107 55 153 30 45 30 48 6 48 -11 0 -29
-13 -40 -29 -64 -89 -208 -75 -256 25 -60 127 74 258 201 198z m-3936 -684 l0
-380 -380 0 -380 0 0 380 0 380 380 0 380 0 0 -380z m800 0 l0 -380 -380 0
-380 0 0 380 0 380 380 0 380 0 0 -380z m800 0 l0 -380 -380 0 -380 0 0 380 0
380 380 0 380 0 0 -380z m6400 0 l0 -380 -380 0 -380 0 0 380 0 380 380 0 380
0 0 -380z m800 0 l0 -380 -380 0 -380 0 0 380 0 380 380 0 380 0 0 -380z m800
0 l0 -380 -380 0 -380 0 0 380 0 380 380 0 380 0 0 -380z m800 0 l0 -380 -380
0 -380 0 0 380 0 380 380 0 380 0 0 -380z m-7264 -116 c42 -20 73 -62 81 -107
4 -27 11 -35 37 -43 80 -23 91 -205 15 -258 -34 -23 -88 -20 -116 6 -13 12
-23 27 -23 34 0 17 50 25 57 8 3 -8 16 -14 29 -14 24 0 44 25 44 56 0 14 -3
15 -12 6 -20 -20 -77 -14 -101 11 -18 17 -34 22 -78 22 -93 0 -157 69 -146
161 11 104 118 163 213 118z m800 0 c42 -20 73 -62 81 -109 l6 -35 98 0 c92 0
99 -1 99 -20 0 -11 -13 -42 -30 -68 -36 -59 -60 -124 -60 -163 0 -26 -4 -29
-30 -29 -27 0 -30 3 -30 33 0 34 36 119 71 168 l20 29 -70 0 c-50 0 -71 4 -71
13 0 6 -8 -3 -17 -21 -9 -19 -27 -41 -40 -49 -20 -13 -23 -24 -23 -74 0 -59 0
-59 30 -59 23 0 30 -4 30 -20 0 -19 -7 -20 -95 -20 -88 0 -95 1 -95 20 0 16 7
20 35 20 l35 0 0 49 0 48 -40 7 c-26 4 -51 18 -74 41 -120 119 17 311 170 239z
m800 0 c95 -45 111 -196 28 -251 -21 -13 -24 -23 -24 -74 0 -59 0 -59 30 -59
23 0 30 -4 30 -20 0 -19 -7 -20 -95 -20 -88 0 -95 1 -95 20 0 16 7 20 35 20
l35 0 0 49 0 48 -40 7 c-26 4 -51 18 -74 41 -120 119 17 311 170 239z m248
-167 c48 -48 46 -179 -4 -229 -36 -36 -92 -39 -127 -6 -32 30 -29 48 7 48 17
0 30 -4 30 -10 0 -5 11 -10 25 -10 25 0 45 25 45 56 0 14 -3 15 -12 6 -7 -7
-27 -12 -45 -12 -49 0 -83 37 -83 90 0 58 33 90 95 90 35 0 52 -6 69 -23z
m-4984 -517 l0 -380 -380 0 -380 0 0 380 0 380 380 0 380 0 0 -380z m800 0 l0
-380 -380 0 -380 0 0 380 0 380 380 0 380 0 0 -380z m800 0 l0 -380 -380 0
-380 0 0 380 0 380 380 0 380 0 0 -380z m4000 0 l0 -380 -380 0 -380 0 0 189
0 188 59 6 c33 3 85 16 115 30 110 51 192 167 203 288 l6 59 188 0 189 0 0
-380z m800 0 l0 -380 -380 0 -380 0 0 380 0 380 380 0 380 0 0 -380z m800 0
l0 -380 -380 0 -380 0 0 380 0 380 380 0 380 0 0 -380z m800 0 l0 -380 -380 0
-380 0 0 380 0 380 380 0 380 0 0 -380z m800 0 l0 -380 -380 0 -380 0 0 380 0
380 380 0 380 0 0 -380z m800 0 l0 -380 -380 0 -380 0 0 380 0 380 380 0 380
0 0 -380z m800 0 l0 -380 -380 0 -380 0 0 380 0 380 380 0 380 0 0 -380z
m-6711 177 c31 -50 103 -112 170 -144 52 -26 65 -28 176 -28 103 0 127 3 168
22 104 48 166 119 204 232 12 36 22 59 22 50 1 -9 17 -48 36 -87 57 -114 175
-203 290 -219 l45 -6 0 -188 0 -189 -190 0 c-183 0 -190 -1 -190 -20 0 -19 7
-20 190 -20 l190 0 0 -380 0 -380 -380 0 -380 0 0 190 c0 183 -1 190 -20 190
-19 0 -20 -7 -20 -190 l0 -190 -380 0 -380 0 0 380 0 380 190 0 c183 0 190 1
190 20 0 19 -7 20 -190 20 l-190 0 0 189 0 188 59 6 c146 13 268 115 308 259
l16 58 22 -54 c12 -29 32 -69 44 -89z m-3689 -977 l0 -380 -380 0 -380 0 0
380 0 380 380 0 380 0 0 -380z m800 0 l0 -380 -380 0 -380 0 0 380 0 380 380
0 380 0 0 -380z m800 0 l0 -380 -380 0 -380 0 0 380 0 380 380 0 380 0 0 -380z
m800 0 l0 -380 -380 0 -380 0 0 380 0 380 380 0 380 0 0 -380z m800 0 l0 -380
-380 0 -380 0 0 380 0 380 380 0 380 0 0 -380z m2400 0 l0 -380 -380 0 -380 0
0 380 0 380 380 0 380 0 0 -380z m800 0 l0 -380 -380 0 -380 0 0 380 0 380
380 0 380 0 0 -380z m800 0 l0 -380 -380 0 -380 0 0 380 0 380 380 0 380 0 0
-380z m800 0 l0 -380 -380 0 -380 0 0 380 0 380 380 0 380 0 0 -380z m800 0
l0 -380 -380 0 -380 0 0 380 0 380 380 0 380 0 0 -380z m800 0 l0 -380 -380 0
-380 0 0 380 0 380 380 0 380 0 0 -380z m800 0 l0 -380 -380 0 -380 0 0 380 0
380 380 0 380 0 0 -380z m-10400 -800 l0 -380 -380 0 -380 0 0 380 0 380 380
0 380 0 0 -380z m800 0 l0 -380 -380 0 -380 0 0 380 0 380 380 0 380 0 0 -380z
m800 0 l0 -380 -380 0 -380 0 0 380 0 380 380 0 380 0 0 -380z m800 0 l0 -380
-380 0 -380 0 0 380 0 380 380 0 380 0 0 -380z m800 0 l0 -380 -380 0 -380 0
0 380 0 380 380 0 380 0 0 -380z m800 0 l0 -380 -380 0 -380 0 0 380 0 380
380 0 380 0 0 -380z m800 0 l0 -380 -380 0 -380 0 0 380 0 380 380 0 380 0 0
-380z m800 0 l0 -380 -380 0 -380 0 0 380 0 380 380 0 380 0 0 -380z m800 0
l0 -380 -380 0 -380 0 0 380 0 380 380 0 380 0 0 -380z m800 0 l0 -380 -380 0
-380 0 0 380 0 380 380 0 380 0 0 -380z m800 0 l0 -380 -380 0 -380 0 0 380 0
380 380 0 380 0 0 -380z m800 0 l0 -380 -380 0 -380 0 0 380 0 380 380 0 380
0 0 -380z m800 0 l0 -380 -380 0 -380 0 0 380 0 380 380 0 380 0 0 -380z m800
0 l0 -380 -380 0 -380 0 0 380 0 380 380 0 380 0 0 -380z m-10400 -800 l0
-380 -380 0 -380 0 0 380 0 380 380 0 380 0 0 -380z m800 0 l0 -380 -380 0
-380 0 0 380 0 380 380 0 380 0 0 -380z m800 0 l0 -380 -380 0 -380 0 0 380 0
380 380 0 380 0 0 -380z m800 0 l0 -380 -380 0 -380 0 0 380 0 380 380 0 380
0 0 -380z m800 0 l0 -380 -380 0 -380 0 0 380 0 380 380 0 380 0 0 -380z m800
0 l0 -380 -380 0 -380 0 0 380 0 380 380 0 380 0 0 -380z m800 0 l0 -380 -380
0 -380 0 0 380 0 380 380 0 380 0 0 -380z m800 0 l0 -380 -380 0 -380 0 0 380
0 380 380 0 380 0 0 -380z m800 0 l0 -380 -380 0 -380 0 0 380 0 380 380 0
380 0 0 -380z m800 0 l0 -380 -380 0 -380 0 0 380 0 380 380 0 380 0 0 -380z
m800 0 l0 -380 -380 0 -380 0 0 380 0 380 380 0 380 0 0 -380z m800 0 l0 -380
-380 0 -380 0 0 380 0 380 380 0 380 0 0 -380z m800 0 l0 -380 -380 0 -380 0
0 380 0 380 380 0 380 0 0 -380z m800 0 l0 -380 -380 0 -380 0 0 380 0 380
380 0 380 0 0 -380z"/>
<path d="M4066 5789 c-32 -25 -36 -73 -7 -91 19 -12 19 -13 -5 -41 -27 -32
-29 -45 -13 -81 24 -51 134 -61 171 -16 24 30 23 75 -3 101 -19 19 -19 22 -5
38 17 18 21 58 8 77 -25 38 -105 45 -146 13z m95 -35 c17 -21 0 -49 -32 -49
-24 0 -36 23 -25 51 7 19 40 18 57 -2z m-7 -100 c10 -4 16 -18 16 -40 0 -28
-5 -35 -25 -40 -31 -8 -55 10 -55 40 0 37 27 54 64 40z"/>
<path d="M4865 5785 c-14 -13 -25 -31 -25 -40 0 -20 49 -20 56 0 8 20 60 19
68 -1 8 -22 -7 -47 -56 -88 -48 -41 -78 -83 -78 -108 0 -16 11 -18 101 -18 98
0 100 0 97 23 -3 20 -9 22 -67 25 l-65 3 62 57 c54 50 62 62 62 94 0 72 -102
107 -155 53z"/>
<path d="M4521 5574 c0 -11 3 -14 6 -6 3 7 2 16 -1 19 -3 4 -6 -2 -5 -13z"/>
<path d="M4488 5490 c-35 -72 -107 -143 -182 -180 -71 -36 -53 -40 21 -6 68
32 138 103 170 172 33 72 25 85 -9 14z"/>
<path d="M5288 5490 c-35 -72 -107 -143 -182 -180 -71 -36 -53 -40 21 -6 68
32 138 103 170 172 33 72 25 85 -9 14z"/>
<path d="M4218 5273 c7 -3 16 -2 19 1 4 3 -2 6 -13 5 -11 0 -14 -3 -6 -6z"/>
<path d="M4086 4924 c-31 -48 -56 -98 -56 -110 0 -23 4 -24 60 -24 l60 0 0
-30 c0 -25 4 -30 25 -30 20 0 25 5 25 26 0 17 6 28 20 31 11 3 20 14 20 24 0
12 -7 19 -20 19 -19 0 -20 7 -20 90 l0 90 -29 0 c-25 0 -36 -11 -85 -86z m64
-39 l0 -55 -40 0 -40 0 36 55 c20 30 38 55 40 55 2 0 4 -25 4 -55z"/>
<path d="M4488 4690 c-35 -72 -107 -143 -182 -180 -71 -36 -53 -40 21 -6 68
32 138 103 170 172 33 72 25 85 -9 14z"/>
<path d="M4218 4473 c7 -3 16 -2 19 1 4 3 -2 6 -13 5 -11 0 -14 -3 -6 -6z"/>
<path d="M4093 4200 c-40 -16 -60 -80 -55 -178 4 -79 99 -119 159 -68 23 20
28 32 28 71 0 37 -5 51 -24 66 -26 21 -62 24 -92 9 -16 -9 -19 -7 -19 10 0 11
9 29 21 41 19 19 22 19 44 5 50 -33 81 -11 41 29 -26 26 -62 31 -103 15z m65
-142 c19 -19 15 -66 -8 -78 -15 -8 -24 -6 -40 10 -23 23 -24 33 -10 61 12 21
40 25 58 7z"/>
<path d="M4488 3890 c-35 -72 -107 -143 -182 -180 -71 -36 -53 -40 21 -6 68
32 138 103 170 172 33 72 25 85 -9 14z"/>
<path d="M3155 3385 c-14 -13 -25 -31 -25 -40 0 -20 49 -20 56 0 8 20 60 19
68 -1 8 -22 -7 -47 -56 -88 -48 -41 -78 -83 -78 -108 0 -16 11 -18 101 -18 98
0 100 0 97 23 -3 20 -9 22 -67 25 l-65 3 62 57 c54 50 62 62 62 94 0 72 -102
107 -155 53z"/>
<path d="M3378 3380 c-29 -30 -30 -32 -27 -116 4 -79 6 -87 32 -110 80 -69
172 23 151 151 -12 74 -38 104 -92 105 -24 0 -42 -8 -64 -30z m86 -26 c11 -11
16 -34 16 -75 0 -69 -12 -99 -40 -99 -27 0 -40 30 -40 94 0 43 5 61 20 76 24
24 24 24 44 4z"/>
<path d="M3688 3090 c-35 -72 -107 -143 -182 -180 -71 -36 -53 -40 21 -6 68
32 138 103 170 172 33 72 25 85 -9 14z"/>
<path d="M3418 2873 c7 -3 16 -2 19 1 4 3 -2 6 -13 5 -11 0 -14 -3 -6 -6z"/>
<path d="M6363 5789 c-18 -12 -33 -29 -33 -40 0 -23 9 -24 38 -3 l22 15 0 -95
0 -96 -35 0 c-28 0 -35 -4 -35 -20 0 -19 7 -20 95 -20 88 0 95 1 95 20 0 16
-7 20 -30 20 l-30 0 0 120 0 120 -27 0 c-16 0 -43 -10 -60 -21z"/>
<path d="M6568 5780 c-29 -30 -30 -32 -27 -116 4 -79 6 -87 32 -110 80 -69
172 23 151 151 -12 74 -38 104 -92 105 -24 0 -42 -8 -64 -30z m86 -26 c11 -11
16 -34 16 -75 0 -69 -12 -99 -40 -99 -27 0 -40 30 -40 94 0 43 5 61 20 76 24
24 24 24 44 4z"/>
<path d="M6921 5574 c0 -11 3 -14 6 -6 3 7 2 16 -1 19 -3 4 -6 -2 -5 -13z"/>
<path d="M6888 5490 c-35 -72 -107 -143 -182 -180 -71 -36 -53 -40 21 -6 68
32 138 103 170 172 33 72 25 85 -9 14z"/>
<path d="M7163 4989 c-18 -12 -33 -29 -33 -40 0 -23 9 -24 38 -3 l22 15 0 -95
0 -96 -35 0 c-28 0 -35 -4 -35 -20 0 -19 7 -20 95 -20 88 0 95 1 95 20 0 16
-7 20 -30 20 l-30 0 0 120 0 120 -27 0 c-16 0 -43 -10 -60 -21z"/>
<path d="M7365 4985 c-14 -13 -25 -31 -25 -40 0 -20 49 -20 56 0 8 20 60 19
68 -1 8 -22 -7 -47 -56 -88 -48 -41 -78 -83 -78 -108 0 -16 11 -18 101 -18 98
0 100 0 97 23 -3 20 -9 22 -67 25 l-65 3 62 57 c54 50 62 62 62 94 0 72 -102
107 -155 53z"/>
<path d="M7721 4774 c0 -11 3 -14 6 -6 3 7 2 16 -1 19 -3 4 -6 -2 -5 -13z"/>
<path d="M7688 4690 c-35 -72 -107 -143 -182 -180 -71 -36 -53 -40 21 -6 68
32 138 103 170 172 33 72 25 85 -9 14z"/>
<path d="M7418 4473 c7 -3 16 -2 19 1 4 3 -2 6 -13 5 -11 0 -14 -3 -6 -6z"/>
<path d="M7163 4189 c-18 -12 -33 -29 -33 -40 0 -23 9 -24 38 -3 l22 15 0 -95
0 -96 -35 0 c-28 0 -35 -4 -35 -20 0 -19 7 -20 95 -20 88 0 95 1 95 20 0 16
-7 20 -30 20 l-30 0 0 120 0 120 -27 0 c-16 0 -43 -10 -60 -21z"/>
<path d="M7387 4199 c-36 -21 -54 -84 -49 -177 4 -79 99 -119 159 -68 23 20
28 32 28 71 0 37 -5 51 -24 66 -26 21 -62 24 -92 9 -16 -9 -19 -7 -19 10 0 11
9 29 21 41 19 19 22 19 44 5 50 -33 81 -11 41 29 -27 27 -76 33 -109 14z m71
-141 c19 -19 15 -66 -8 -78 -15 -8 -24 -6 -40 10 -23 23 -24 33 -10 61 12 21
40 25 58 7z"/>
<path d="M7721 3974 c0 -11 3 -14 6 -6 3 7 2 16 -1 19 -3 4 -6 -2 -5 -13z"/>
<path d="M7688 3890 c-35 -72 -107 -143 -182 -180 -71 -36 -53 -40 21 -6 68
32 138 103 170 172 33 72 25 85 -9 14z"/>
<path d="M7418 3673 c7 -3 16 -2 19 1 4 3 -2 6 -13 5 -11 0 -14 -3 -6 -6z"/>
<path d="M5563 4189 c-18 -12 -33 -29 -33 -40 0 -23 9 -24 38 -3 l22 15 0 -95
0 -96 -35 0 c-28 0 -35 -4 -35 -20 0 -19 7 -20 95 -20 88 0 95 1 95 20 0 16
-7 20 -30 20 l-30 0 0 120 0 120 -27 0 c-16 0 -43 -10 -60 -21z"/>
<path d="M5786 4124 c-31 -48 -56 -98 -56 -110 0 -23 4 -24 60 -24 l60 0 0
-30 c0 -25 4 -30 25 -30 20 0 25 5 25 26 0 17 6 28 20 31 11 3 20 14 20 24 0
12 -7 19 -20 19 -19 0 -20 7 -20 90 l0 90 -29 0 c-25 0 -36 -11 -85 -86z m64
-39 l0 -55 -40 0 -40 0 36 55 c20 30 38 55 40 55 2 0 4 -25 4 -55z"/>
<path d="M6121 3974 c0 -11 3 -14 6 -6 3 7 2 16 -1 19 -3 4 -6 -2 -5 -13z"/>
<path d="M6088 3890 c-35 -72 -107 -143 -182 -180 -71 -36 -53 -40 21 -6 68
32 138 103 170 172 33 72 25 85 -9 14z"/>
<path d="M4106 3338 c-28 -39 22 -82 53 -44 15 17 -2 66 -23 66 -8 0 -22 -10
-30 -22z"/>
<path d="M5800 3345 c-15 -18 -6 -61 15 -69 37 -14 65 26 45 64 -13 24 -42 26
-60 5z"/>
<path d="M4763 2589 c-18 -12 -33 -29 -33 -40 0 -23 9 -24 38 -3 l22 15 0 -95
0 -96 -35 0 c-28 0 -35 -4 -35 -20 0 -19 7 -20 95 -20 88 0 95 1 95 20 0 16
-7 20 -30 20 l-30 0 0 120 0 120 -27 0 c-16 0 -43 -10 -60 -21z"/>
<path d="M4966 2589 c-30 -24 -34 -63 -10 -90 15 -17 15 -20 -5 -45 -24 -30
-26 -43 -10 -78 24 -51 134 -61 171 -16 24 30 23 75 -3 101 -19 19 -19 22 -5
38 17 18 21 58 8 77 -25 38 -105 45 -146 13z m95 -35 c17 -21 0 -49 -32 -49
-24 0 -36 23 -25 51 7 19 40 18 57 -2z m-7 -100 c10 -4 16 -18 16 -40 0 -28
-5 -35 -25 -40 -31 -8 -55 10 -55 40 0 37 27 54 64 40z"/>
<path d="M5321 2374 c0 -11 3 -14 6 -6 3 7 2 16 -1 19 -3 4 -6 -2 -5 -13z"/>
<path d="M5288 2290 c-35 -72 -107 -143 -182 -180 -71 -36 -53 -40 21 -6 68
32 138 103 170 172 33 72 25 85 -9 14z"/>
<path d="M5018 2073 c7 -3 16 -2 19 1 4 3 -2 6 -13 5 -11 0 -14 -3 -6 -6z"/>
</g>
</svg>
